<?xml version="1.0" encoding="iso-8859-1"?>
<!-- Generator: Adobe Illustrator 19.0.0, SVG Export Plug-In . SVG Version: 6.00 Build 0)  -->
<svg version="1.1" id="Layer_1" xmlns="http://www.w3.org/2000/svg" xmlns:xlink="http://www.w3.org/1999/xlink" x="0px" y="0px"
	 viewBox="0 0 512.001 512.001" style="enable-background:new 0 0 512.001 512.001;" xml:space="preserve">
<g>
	<polyline style="fill:#F28838;" points="375.494,195.549 364.037,195.549 328.488,195.549 289.763,195.549 289.762,195.549 
		289.762,225.887 289.763,225.887 328.488,225.887 329.739,225.887 350.287,225.887 372.927,225.887 392.89,225.887 
		431.359,225.887 431.359,195.549 402.981,195.549 	"/>
	<polyline style="fill:#F28838;" points="167.812,195.549 156.355,195.549 120.804,195.549 82.08,195.549 82.08,195.549 
		82.08,225.887 82.08,225.887 120.804,225.887 122.055,225.887 142.603,225.887 165.243,225.887 185.207,225.887 223.676,225.887 
		223.676,195.549 195.298,195.549 	"/>
</g>
<g>
	<polyline style="fill:#FFB92E;" points="431.359,195.549 431.359,165.21 364.037,165.21 328.488,165.21 289.763,165.21 
		289.762,165.21 289.762,195.549 289.763,195.549 	"/>
	<polyline style="fill:#FFB92E;" points="223.676,195.549 223.676,165.21 156.355,165.21 120.804,165.21 82.08,165.21 82.08,165.21 
		82.08,195.549 82.08,195.549 	"/>
</g>
<g>
	<path style="fill:#CCC3A8;" d="M434.169,263.67c-2.606-23.172-2.809-37.783-2.809-37.783h-85.096h-56.501
		c0,0-1.152,82.636-33.043,166.563c3.866,10.176,8.184,20.372,13.007,30.442h0.517h76.018H477.41
		c-21.975-45.874-33.474-94.364-39.486-131.756"/>
	<path style="fill:#CCC3A8;" d="M223.677,225.887h-85.096H82.08c0,0-1.447,103.892-46.051,197.006h102.552h131.147
		C225.123,329.779,223.677,225.887,223.677,225.887z"/>
</g>
<g>
	<path style="fill:#7C7A75;" d="M280.968,473.576v-37.749c0-7.143-4.801-12.935-10.723-12.935H35.511
		c-5.922,0-10.724,5.792-10.724,12.935v37.749H280.968z"/>
	<path style="fill:#7C7A75;" d="M477.928,422.893H270.245c5.922,0,10.723,5.792,10.723,12.935v37.749h207.684v-37.749
		C488.651,428.684,483.85,422.893,477.928,422.893z"/>
</g>
<path style="fill:#CCC3A8;" d="M419.926,503.916h70.48c7.461,0,13.509-6.048,13.509-13.509v-3.32
	c0-7.461-6.048-13.509-13.509-13.509h-81.2H102.795h-81.2c-7.461,0-13.509,6.048-13.509,13.509v3.32
	c0,7.461,6.048,13.509,13.509,13.509h81.2h289.824"/>
<g>
	<path style="fill:#C9B585;" d="M312.047,293.473l3.754-28.409c2.606-23.966,2.808-39.078,2.808-39.078h-21.628
		c0,0-1.152,82.636-33.043,166.563c3.677,9.678,7.778,19.373,12.319,28.96C295.839,376.552,306.38,329.916,312.047,293.473z"/>
	<path style="fill:#C9B585;" d="M483.281,422.992h1.346c-0.235-0.49-0.461-0.982-0.693-1.471
		C483.721,422.011,483.498,422.502,483.281,422.992z"/>
</g>
<polygon style="fill:#EF711D;" points="295.904,195.648 295.903,195.648 295.903,225.986 295.904,225.986 319.073,225.986 
	319.073,195.648 "/>
<path style="fill:#EF9A1D;" d="M332.01,165.308h-23.171c-7.144,0-12.935,5.792-12.935,12.935v17.404h23.171v-17.404
	C319.075,171.1,324.866,165.308,332.01,165.308z"/>
<path style="fill:#6B6861;" d="M303.866,422.992h-26.404c5.922,0,10.723,5.791,10.723,12.935v37.75h26.404v-37.75
	C314.589,428.784,309.788,422.992,303.866,422.992z"/>
<path style="fill:#C9B585;" d="M111.215,225.986H89.657c0,0-1.447,103.892-46.051,197.006h24.6
	C109.828,328.487,111.215,225.986,111.215,225.986z"/>
<polygon style="fill:#EF711D;" points="88.221,195.648 88.219,195.648 88.219,225.986 88.221,225.986 111.39,225.986 
	111.39,195.648 "/>
<path style="fill:#EF9A1D;" d="M124.324,165.308h-23.17c-7.143,0-12.935,5.792-12.935,12.935v17.404h0.001h23.169v-17.404
	C111.39,171.1,117.181,165.308,124.324,165.308z"/>
<g style="opacity:0.15;">
	<path style="fill:#F5F5F5;" d="M155.915,179.114v18.575v32.381h0.001c0,0,1.289,98.422,38.738,192.921h77.63
		c-44.604-93.114-46.051-197.006-46.051-197.006h-0.001v-30.337v-17.404c0-7.143-5.792-12.935-12.935-12.935h-54.386h-15.931
		C150.124,165.308,155.915,171.49,155.915,179.114z"/>
</g>
<g style="opacity:0.15;">
	<path style="fill:#F5F5F5;" d="M361.041,179.114v18.575v32.381h0.001c0,0,1.289,98.422,38.738,192.921h77.63
		c-44.604-93.114-46.051-197.006-46.051-197.006h-0.001v-30.337v-17.404c0-7.143-5.791-12.935-12.935-12.935h-54.386h-15.931
		C355.249,165.308,361.041,171.49,361.041,179.114z"/>
</g>
<path style="fill:#6B6861;" d="M66.991,422.992h-23.17c-5.922,0-10.724,5.791-10.724,12.935v37.75h23.17v-37.75
	C56.268,428.784,61.07,422.992,66.991,422.992z"/>
<path style="fill:#C9B585;" d="M36.536,490.407v-3.32c0-7.461,6.048-13.509,13.509-13.509H29.892
	c-7.461,0-13.509,6.048-13.509,13.509v3.32c0,7.461,6.048,13.509,13.509,13.509h20.153
	C42.584,503.916,36.536,497.868,36.536,490.407z"/>
<g>
	<path style="fill:#231F20;" d="M117.388,70.577h112.591c4.466,0,8.084-3.618,8.084-8.084s-3.618-8.084-8.084-8.084H117.388
		c-10.29,0-18.66-8.372-18.66-18.662V34.83c0-10.291,8.371-18.662,18.66-18.662h67.32c4.466,0,8.084-3.618,8.084-8.084
		S189.174,0,184.708,0h-67.32C98.185,0,82.561,15.625,82.561,34.83v0.917C82.561,54.952,98.185,70.577,117.388,70.577z"/>
	<path style="fill:#231F20;" d="M213.68,16.168h5.88c4.466,0,8.084-3.618,8.084-8.084S224.026,0,219.56,0h-5.88
		c-4.466,0-8.084,3.618-8.084,8.084S209.216,16.168,213.68,16.168z"/>
	<path style="fill:#231F20;" d="M496.735,466.443v-30.615c0-9.663-5.872-17.802-13.834-20.249
		c-21.148-45.525-31.781-93.288-36.996-125.725c-0.708-4.409-4.853-7.405-9.266-6.699c-4.409,0.709-7.407,4.858-6.699,9.266
		c7.259,45.143,18.972,86.245,34.863,122.389H274.86c-0.084-0.182-0.165-0.364-0.249-0.546c-0.659-1.433-1.311-2.876-1.957-4.331
		c-0.225-0.507-0.447-1.014-0.67-1.522c-0.514-1.169-1.024-2.348-1.53-3.531c-0.258-0.604-0.516-1.206-0.771-1.81
		c-0.458-1.087-0.91-2.183-1.36-3.279c-0.672-1.636-1.332-3.272-1.979-4.91c-0.162-0.407-0.324-0.812-0.485-1.22
		c-0.164-0.419-0.322-0.839-0.485-1.258c25.709-69.115,31.078-135.829,32.188-158.429h126.011
		c0.337,6.657,1.055,17.201,2.562,30.602c0.499,4.438,4.511,7.635,8.937,7.13c4.437-0.499,7.629-4.5,7.13-8.937
		c-2.523-22.436-2.758-36.851-2.76-36.992V195.55v-30.338c0-4.466-3.618-8.084-8.084-8.084H289.762
		c-4.466,0-8.084,3.618-8.084,8.084v30.338l0.001,30.224c-0.011,0.746-1.285,68.462-24.951,142.163
		c-23.658-73.749-24.957-141.332-24.969-142.161V195.55v-30.338c0-4.466-3.618-8.084-8.084-8.084h-72.61v-19.745
		c0-6.836,5.561-12.397,12.397-12.397h16.935h76.907h0.03c19.205,0,34.83-15.624,34.83-34.83v-0.917
		c0-19.205-15.624-34.83-34.83-34.83c-4.466,0-8.084,3.618-8.084,8.084s3.618,8.084,8.084,8.084c10.29,0,18.661,8.372,18.661,18.662
		v0.917c0,10.29-8.372,18.662-18.661,18.662h-0.03h-76.907h-16.935c-15.75,0-28.565,12.815-28.565,28.565v19.745H82.079
		c-4.466,0-8.084,3.618-8.084,8.084v30.338l0.001,30.224c-0.015,1.012-1.931,100.43-43.457,189.806
		c-7.961,2.447-13.836,10.586-13.836,20.249v30.246c-9.554,2.225-16.701,10.792-16.701,21.013v3.32
		c0,11.906,9.687,21.593,21.593,21.593h371.024c4.466,0,8.084-3.618,8.084-8.084c0-4.466-3.618-8.084-8.084-8.084H21.595
		c-2.991,0-5.425-2.434-5.425-5.425v-3.32c0-2.991,2.434-5.425,5.425-5.425h3.192h256.181h207.684h1.755
		c2.991,0,5.425,2.434,5.425,5.425v3.32c0,2.991-2.434,5.425-5.425,5.425h-70.48c-4.466,0-8.084,3.618-8.084,8.084
		c0,4.466,3.618,8.084,8.084,8.084h70.48c11.906,0,21.593-9.687,21.593-21.593v-3.32
		C511.999,477.382,505.562,469.156,496.735,466.443z M423.275,173.293v14.17h-20.294c-4.466,0-8.084,3.618-8.084,8.084
		c0,4.466,3.618,8.084,8.084,8.084h20.293v14.17H297.846l0.001-14.17h77.647c4.466,0,8.084-3.618,8.084-8.084
		c0-4.466-3.618-8.084-8.084-8.084h-77.648l0.001-14.17H423.275z M215.592,173.293v14.17h-20.293c-4.466,0-8.084,3.618-8.084,8.084
		c0,4.466,3.618,8.084,8.084,8.084h20.293v14.17H90.163l0.001-14.17h77.647c4.466,0,8.084-3.618,8.084-8.084
		c0-4.466-3.618-8.084-8.084-8.084H90.164l0.001-14.17H215.592z M89.883,233.971h125.991c1.221,25.102,7.658,104.418,41.25,180.838
		H48.633C82.223,338.391,88.661,259.074,89.883,233.971z M32.871,435.828c0-3.009,1.71-4.851,2.64-4.851h0.517h233.698h0.517
		c0.116,0,0.245,0.029,0.38,0.085c0.951,0.393,2.258,2.133,2.258,4.765v29.665H32.871V435.828z M289.052,465.492v-29.665
		c0-0.662-0.034-1.314-0.088-1.96c-0.008-0.097-0.014-0.195-0.023-0.292c-0.059-0.613-0.143-1.218-0.249-1.815
		c-0.019-0.112-0.041-0.224-0.063-0.336c-0.028-0.149-0.052-0.3-0.083-0.447H477.41h0.517c0.93,0,2.639,1.842,2.639,4.851v29.665
		H289.052z"/>
</g>
<g>
</g>
<g>
</g>
<g>
</g>
<g>
</g>
<g>
</g>
<g>
</g>
<g>
</g>
<g>
</g>
<g>
</g>
<g>
</g>
<g>
</g>
<g>
</g>
<g>
</g>
<g>
</g>
<g>
</g>
</svg>
