<?xml version="1.0" encoding="iso-8859-1"?>
<!-- Generator: Adobe Illustrator 19.0.0, SVG Export Plug-In . SVG Version: 6.00 Build 0)  -->
<svg version="1.1" id="Layer_1" xmlns="http://www.w3.org/2000/svg" xmlns:xlink="http://www.w3.org/1999/xlink" x="0px" y="0px"
	 viewBox="0 0 512 512" style="enable-background:new 0 0 512 512;" xml:space="preserve">
<g transform="translate(1 1)">
	<g>
		<polygon style="fill:#FFE100;" points="7.533,472.6 502.467,472.6 502.467,319 7.533,319 		"/>
		<path style="fill:#FFE100;" d="M331.8,165.4c0-93.867,8.533-128,8.533-128H169.667c0,0,8.533,34.133,8.533,128
			c0,0,8.533,153.6-68.267,153.6h290.133C323.267,319,331.8,165.4,331.8,165.4"/>
	</g>
	<g>
		<path style="fill:#FDCC00;" d="M178.2,193.56v-19.627c-80.213,0-145.067,64.853-145.067,145.067h76.8
			C166.253,319,176.493,237.08,178.2,193.56"/>
		<path style="fill:#FDCC00;" d="M331.8,173.933v19.627C333.507,237.933,343.747,319,400.067,319h76.8
			C476.867,238.787,412.013,173.933,331.8,173.933"/>
	</g>
	<g>
		<polygon style="fill:#FFA800;" points="485.4,472.6 502.467,472.6 502.467,319 485.4,319 		"/>
		<path style="fill:#FFA800;" d="M331.8,173.933v0.853c72.533,8.533,128,69.973,128,144.213h17.067
			C476.867,238.787,412.013,173.933,331.8,173.933"/>
	</g>
	<g>
		<polygon style="fill:#FFFFFF;" points="7.533,472.6 24.6,472.6 24.6,319 7.533,319 		"/>
		<path style="fill:#FFFFFF;" d="M178.2,173.933v0.853C106.52,183.32,50.2,244.76,50.2,319H33.133
			C33.133,238.787,97.987,173.933,178.2,173.933"/>
	</g>
	<polygon style="fill:#63D3FD;" points="178.2,208.067 331.8,208.067 331.8,139.8 178.2,139.8 	"/>
	<g>
		<polygon style="fill:#00DA6C;" points="50.2,395.8 84.333,395.8 84.333,361.667 50.2,361.667 		"/>
		<polygon style="fill:#00DA6C;" points="127,395.8 161.133,395.8 161.133,361.667 127,361.667 		"/>
		<polygon style="fill:#00DA6C;" points="280.6,395.8 314.733,395.8 314.733,361.667 280.6,361.667 		"/>
		<polygon style="fill:#00DA6C;" points="357.4,395.8 391.533,395.8 391.533,361.667 357.4,361.667 		"/>
		<polygon style="fill:#00DA6C;" points="434.2,395.8 468.333,395.8 468.333,361.667 434.2,361.667 		"/>
		<polygon style="fill:#00DA6C;" points="203.8,395.8 237.933,395.8 237.933,361.667 203.8,361.667 		"/>
	</g>
	<path d="M502.467,481.133H7.533C2.413,481.133-1,477.72-1,472.6V319c0-5.12,3.413-8.533,8.533-8.533h494.933
		c5.12,0,8.533,3.413,8.533,8.533v153.6C511,477.72,507.587,481.133,502.467,481.133z M16.067,464.067h477.867V327.533H16.067
		V464.067z"/>
	<path d="M84.333,404.333H50.2c-5.12,0-8.533-3.413-8.533-8.533v-34.133c0-5.12,3.413-8.533,8.533-8.533h34.133
		c5.12,0,8.533,3.413,8.533,8.533V395.8C92.867,400.92,89.453,404.333,84.333,404.333z M58.733,387.267H75.8V370.2H58.733V387.267z"
		/>
	<path d="M84.333,438.467H50.2c-5.12,0-8.533-3.413-8.533-8.533S45.08,421.4,50.2,421.4h34.133c5.12,0,8.533,3.413,8.533,8.533
		S89.453,438.467,84.333,438.467z"/>
	<path d="M161.133,404.333H127c-5.12,0-8.533-3.413-8.533-8.533v-34.133c0-5.12,3.413-8.533,8.533-8.533h34.133
		c5.12,0,8.533,3.413,8.533,8.533V395.8C169.667,400.92,166.253,404.333,161.133,404.333z M135.533,387.267H152.6V370.2h-17.067
		V387.267z"/>
	<path d="M161.133,438.467H127c-5.12,0-8.533-3.413-8.533-8.533S121.88,421.4,127,421.4h34.133c5.12,0,8.533,3.413,8.533,8.533
		S166.253,438.467,161.133,438.467z"/>
	<path d="M314.733,404.333H280.6c-5.12,0-8.533-3.413-8.533-8.533v-34.133c0-5.12,3.413-8.533,8.533-8.533h34.133
		c5.12,0,8.533,3.413,8.533,8.533V395.8C323.267,400.92,319.853,404.333,314.733,404.333z M289.133,387.267H306.2V370.2h-17.067
		V387.267z"/>
	<path d="M314.733,438.467H280.6c-5.12,0-8.533-3.413-8.533-8.533s3.413-8.533,8.533-8.533h34.133c5.12,0,8.533,3.413,8.533,8.533
		S319.853,438.467,314.733,438.467z"/>
	<path d="M391.533,404.333H357.4c-5.12,0-8.533-3.413-8.533-8.533v-34.133c0-5.12,3.413-8.533,8.533-8.533h34.133
		c5.12,0,8.533,3.413,8.533,8.533V395.8C400.067,400.92,396.653,404.333,391.533,404.333z M365.933,387.267H383V370.2h-17.067
		V387.267z"/>
	<path d="M391.533,438.467H357.4c-5.12,0-8.533-3.413-8.533-8.533s3.413-8.533,8.533-8.533h34.133c5.12,0,8.533,3.413,8.533,8.533
		S396.653,438.467,391.533,438.467z"/>
	<path d="M468.333,404.333H434.2c-5.12,0-8.533-3.413-8.533-8.533v-34.133c0-5.12,3.413-8.533,8.533-8.533h34.133
		c5.12,0,8.533,3.413,8.533,8.533V395.8C476.867,400.92,473.453,404.333,468.333,404.333z M442.733,387.267H459.8V370.2h-17.067
		V387.267z"/>
	<path d="M468.333,438.467H434.2c-5.12,0-8.533-3.413-8.533-8.533s3.413-8.533,8.533-8.533h34.133c5.12,0,8.533,3.413,8.533,8.533
		S473.453,438.467,468.333,438.467z"/>
	<path d="M237.933,404.333H203.8c-5.12,0-8.533-3.413-8.533-8.533v-34.133c0-5.12,3.413-8.533,8.533-8.533h34.133
		c5.12,0,8.533,3.413,8.533,8.533V395.8C246.467,400.92,243.053,404.333,237.933,404.333z M212.333,387.267H229.4V370.2h-17.067
		V387.267z"/>
	<path d="M237.933,438.467H203.8c-5.12,0-8.533-3.413-8.533-8.533s3.413-8.533,8.533-8.533h34.133c5.12,0,8.533,3.413,8.533,8.533
		S243.053,438.467,237.933,438.467z"/>
	<path d="M400.067,327.533H109.933c-5.12,0-8.533-3.413-8.533-8.533c0-5.12,3.413-8.533,8.533-8.533
		c11.947,0,22.187-4.267,30.72-13.653c34.133-35.84,29.867-130.56,29.013-131.413c0-91.307-8.533-126.293-8.533-126.293
		c-0.853-2.56,0-5.12,1.707-7.68c1.707-2.56,4.267-2.56,6.827-2.56h170.667c2.56,0,5.12,0.853,6.827,3.413
		c1.707,2.56,1.707,4.267,1.707,6.827c0,0-8.533,34.987-8.533,126.293c0,1.707-5.12,95.573,29.013,131.413
		c8.533,8.533,18.773,13.653,30.72,13.653c5.12,0,8.533,3.413,8.533,8.533C408.6,324.12,405.187,327.533,400.067,327.533z
		 M150.893,310.467h207.36c-0.853-0.853-0.853-0.853-1.707-1.707c-39.253-41.813-34.133-139.947-34.133-144.213
		c0-65.707,4.267-102.4,6.827-118.613H179.907c2.56,16.213,6.827,52.907,6.827,119.467c0,3.413,5.12,102.4-34.133,143.36
		C152.6,309.613,151.747,309.613,150.893,310.467z"/>
	<path d="M331.8,216.6H178.2c-5.12,0-8.533-3.413-8.533-8.533V139.8c0-5.12,3.413-8.533,8.533-8.533h153.6
		c5.12,0,8.533,3.413,8.533,8.533v68.267C340.333,213.187,336.92,216.6,331.8,216.6z M186.733,199.533h136.533v-51.2H186.733
		V199.533z"/>
	<path d="M109.933,327.533h-76.8c-5.12,0-8.533-3.413-8.533-8.533c0-84.48,69.12-153.6,153.6-153.6c5.12,0,8.533,3.413,8.533,8.533
		v19.627C183.32,279.747,156.013,327.533,109.933,327.533z M41.667,310.467h68.267c50.347,0,58.027-81.92,59.733-117.76v-10.24
		C101.4,186.733,45.933,242.2,41.667,310.467z"/>
	<path d="M476.867,327.533h-76.8c-46.08,0-73.387-47.787-76.8-133.973v-19.627c0-5.12,3.413-8.533,8.533-8.533
		c84.48,0,153.6,69.12,153.6,153.6C485.4,324.12,481.987,327.533,476.867,327.533z M340.333,182.467v10.24
		c1.707,34.987,9.387,116.907,59.733,116.907h68.267C464.067,242.2,408.6,186.733,340.333,182.467z"/>
</g>
<g>
</g>
<g>
</g>
<g>
</g>
<g>
</g>
<g>
</g>
<g>
</g>
<g>
</g>
<g>
</g>
<g>
</g>
<g>
</g>
<g>
</g>
<g>
</g>
<g>
</g>
<g>
</g>
<g>
</g>
</svg>
